<?xml version="1.0" encoding="UTF-8" standalone="no"?>
<!-- Created with Inkscape (http://www.inkscape.org/) -->

<svg
   xmlns:dc="http://purl.org/dc/elements/1.1/"
   xmlns:cc="http://creativecommons.org/ns#"
   xmlns:rdf="http://www.w3.org/1999/02/22-rdf-syntax-ns#"
   xmlns:svg="http://www.w3.org/2000/svg"
   xmlns="http://www.w3.org/2000/svg"
   xmlns:sodipodi="http://sodipodi.sourceforge.net/DTD/sodipodi-0.dtd"
   xmlns:inkscape="http://www.inkscape.org/namespaces/inkscape"
   width="48"
   height="48"
   id="svg3179"
   version="1.1"
   inkscape:version="0.48.4 r9939"
   sodipodi:docname="contactpic_32px.svg"
   inkscape:export-filename="/home/daniel/Programmation/Laclasse Mail v3/contactpic_32px.png"
   inkscape:export-xdpi="90"
   inkscape:export-ydpi="90">
  <defs
     id="defs3181" />
  <sodipodi:namedview
     id="base"
     pagecolor="#ffffff"
     bordercolor="#666666"
     borderopacity="1.0"
     inkscape:pageopacity="0.0"
     inkscape:pageshadow="2"
     inkscape:zoom="5.6"
     inkscape:cx="26.446888"
     inkscape:cy="12.857143"
     inkscape:document-units="px"
     inkscape:current-layer="layer1"
     showgrid="false"
     inkscape:window-width="888"
     inkscape:window-height="683"
     inkscape:window-x="0"
     inkscape:window-y="38"
     inkscape:window-maximized="0" />
  <metadata
     id="metadata3184">
    <rdf:RDF>
      <cc:Work
         rdf:about="">
        <dc:format>image/svg+xml</dc:format>
        <dc:type
           rdf:resource="http://purl.org/dc/dcmitype/StillImage" />
        <dc:title></dc:title>
      </cc:Work>
    </rdf:RDF>
  </metadata>
  <g
     inkscape:label="Calque 1"
     inkscape:groupmode="layer"
     id="layer1"
     transform="translate(0,-1004.3622)">
    <path
       style="font-size:medium;font-style:normal;font-variant:normal;font-weight:normal;font-stretch:normal;text-indent:0;text-align:start;text-decoration:none;line-height:normal;letter-spacing:normal;word-spacing:normal;text-transform:none;direction:ltr;block-progression:tb;writing-mode:lr-tb;text-anchor:start;baseline-shift:baseline;color:#000000;fill:#444444;fill-opacity:1;stroke:none;stroke-width:2;marker:none;visibility:visible;display:inline;overflow:visible;enable-background:accumulate;font-family:Sans;-inkscape-font-specification:Sans"
       d="m 24,1007.9366 c -6.815232,0 -12.403671,5.0393 -12.403671,11.8543 0,3.5534 1.522655,6.7676 3.942889,9.0358 -6.3521547,2.9909 -11.1728782,9.2467 -13.0608202,16.7574 -0.3419274,1.5256 0.9830699,3.1927 2.5464493,3.2037 l 37.9503069,0 c 1.563378,0 2.888373,-1.6781 2.546449,-3.2037 -1.88802,-7.511 -6.708693,-13.7665 -13.060819,-16.7574 2.420232,-2.2682 3.942887,-5.4824 3.942887,-9.0358 0,-6.815 -5.588438,-11.8543 -12.403671,-11.8543 z m 0,4.7081 c 3.974038,0 7.146488,3.1722 7.146488,7.146 0,3.9745 -3.17245,7.1468 -7.146488,7.1467 -3.974035,0 -7.146483,-3.1722 -7.146483,-7.1467 0,-3.974 3.172448,-7.1462 7.146483,-7.146 z m 0,19.5497 c 6.560247,0 12.232104,4.5824 15.114409,11.3362 l -30.1466739,0 C 11.851461,1036.7835 17.443901,1032.1949 24,1032.1945 z"
       id="circle605"
       inkscape:connector-curvature="0"
       sodipodi:nodetypes="ssccccccsscscsccccc" />
  </g>
</svg>
