<?xml version="1.0" encoding="UTF-8" standalone="no"?>
<!-- Created with Inkscape (http://www.inkscape.org/) -->

<svg
   xmlns:dc="http://purl.org/dc/elements/1.1/"
   xmlns:cc="http://creativecommons.org/ns#"
   xmlns:rdf="http://www.w3.org/1999/02/22-rdf-syntax-ns#"
   xmlns:svg="http://www.w3.org/2000/svg"
   xmlns="http://www.w3.org/2000/svg"
   xmlns:sodipodi="http://sodipodi.sourceforge.net/DTD/sodipodi-0.dtd"
   xmlns:inkscape="http://www.inkscape.org/namespaces/inkscape"
   width="23"
   height="32"
   id="svg2"
   version="1.1"
   inkscape:version="0.48.4 r9939"
   sodipodi:docname="selector.svg"
   inkscape:export-filename="/home/daniel/Programmation/Laclasse Mail v3/selector.png"
   inkscape:export-xdpi="90"
   inkscape:export-ydpi="90">
  <defs
     id="defs4" />
  <sodipodi:namedview
     id="base"
     pagecolor="#ffffff"
     bordercolor="#666666"
     borderopacity="1.0"
     inkscape:pageopacity="0.0"
     inkscape:pageshadow="2"
     inkscape:zoom="11.2"
     inkscape:cx="-2.4289408"
     inkscape:cy="13.890435"
     inkscape:document-units="px"
     inkscape:current-layer="layer1"
     showgrid="false"
     inkscape:window-width="1187"
     inkscape:window-height="776"
     inkscape:window-x="4"
     inkscape:window-y="62"
     inkscape:window-maximized="0" />
  <metadata
     id="metadata7">
    <rdf:RDF>
      <cc:Work
         rdf:about="">
        <dc:format>image/svg+xml</dc:format>
        <dc:type
           rdf:resource="http://purl.org/dc/dcmitype/StillImage" />
        <dc:title></dc:title>
      </cc:Work>
    </rdf:RDF>
  </metadata>
  <g
     inkscape:label="Calque 1"
     inkscape:groupmode="layer"
     id="layer1"
     transform="translate(0,-1020.3622)">
    <g
       id="g3005"
       transform="translate(0,-0.6429)">
      <path
         d="m 9.4574724,1037.9236 c -0.007,0 -0.015,-10e-4 -0.02,0 -0.553,0 -1.0000002,0.447 -1.0000002,1 0,0.326 0.156,0.616 0.3970002,0.799 l 1.9459996,2.071 c 0.189,0.201 0.453,0.315 0.729,0.315 0.276,0 0.54,-0.114 0.729,-0.315 l 2.053,-2.186 c 0.273,-0.29 0.347,-0.716 0.189,-1.082 -0.159,-0.365 -0.519,-0.603 -0.918,-0.603 H 9.4574724 z"
         id="path170"
         inkscape:connector-curvature="0" />
      <path
         d="m 12.228222,1032.2166 c -0.189,-0.201 -0.453,-0.315 -0.729,-0.315 -0.276,0 -0.54,0.114 -0.729,0.315 l -2.0520001,2.186 c -0.273,0.291 -0.348,0.716 -0.189,1.082 0.158,0.365 0.52,0.603 0.918,0.603 h 4.1060001 c 0.399,0 0.759,-0.237 0.918,-0.603 0.158,-0.366 0.084,-0.792 -0.189,-1.082 l -2.054,-2.186 z"
         id="path172"
         inkscape:connector-curvature="0" />
    </g>
  </g>
</svg>
